<?xml version="1.0" standalone="no"?>
<!DOCTYPE svg PUBLIC "-//W3C//DTD SVG 1.1//EN" "http://www.w3.org/Graphics/SVG/1.1/DTD/svg11.dtd" >
<svg xmlns="http://www.w3.org/2000/svg">
<metadata>Generated by IcoMoon</metadata>
<defs>
<font id="icomoon" horiz-adv-x="1024">
<font-face units-per-em="1024" ascent="960" descent="-64" />
<missing-glyph horiz-adv-x="1024" />
<glyph unicode="&#x20;" horiz-adv-x="512" d="" />
<glyph unicode="&#xe900;" glyph-name="menu2" d="M355.556 504.889c-70.693 0-128 57.307-128 128s57.307 128 128 128c70.693 0 128-57.308 128-128s-57.307-128-128-128zM355.556 561.778c39.273 0 71.111 31.838 71.111 71.111s-31.838 71.111-71.111 71.111c-39.273 0-71.111-31.838-71.111-71.111s31.838-71.111 71.111-71.111zM355.556 163.556c-70.693 0-128 57.307-128 128s57.307 128 128 128c70.693 0 128-57.307 128-128s-57.307-128-128-128zM355.556 220.444c39.273 0 71.111 31.838 71.111 71.111s-31.838 71.111-71.111 71.111c-39.273 0-71.111-31.838-71.111-71.111s31.838-71.111 71.111-71.111zM696.889 504.889c-70.693 0-128 57.307-128 128s57.307 128 128 128c70.693 0 128-57.308 128-128s-57.307-128-128-128zM696.889 561.778c39.273 0 71.111 31.838 71.111 71.111s-31.838 71.111-71.111 71.111c-39.273 0-71.111-31.838-71.111-71.111s31.838-71.111 71.111-71.111zM696.889 163.556c-70.693 0-128 57.307-128 128s57.307 128 128 128c70.693 0 128-57.307 128-128s-57.307-128-128-128zM696.889 220.444c39.273 0 71.111 31.838 71.111 71.111s-31.838 71.111-71.111 71.111c-39.273 0-71.111-31.838-71.111-71.111s31.838-71.111 71.111-71.111z" />
<glyph unicode="&#xe901;" glyph-name="akt" d="M745.863 697.6h-66.666c-11.015 0-20.001 10.48-20.001 23.333v60c0 42.293-32.852 76.667-73.333 76.667h-333.334c-40.453 0-73.333-34.373-73.333-76.667v-700.001c0-42.266 32.88-76.665 73.333-76.665h493.334c40.481 0 73.333 34.399 73.333 76.665v540.001c0 42.293-32.852 76.667-73.333 76.667zM765.864 80.933c0-12.851-8.989-23.333-20.001-23.333h-493.334c-11.013 0-20 10.481-20 23.333v700.001c0 12.853 8.986 23.333 20 23.333h333.334c11.012 0 20.001-10.48 20.001-23.333v-60c0-42.293 32.852-76.667 73.333-76.667h66.666c11.012 0 20.001-10.48 20.001-23.333v-540.001zM312.53 590.932h213.334c14.746 0 26.664 11.922 26.664 26.668s-11.919 26.667-26.664 26.667h-213.334c-14.747 0-26.667-11.92-26.667-26.667s11.92-26.668 26.667-26.668zM685.864 537.6h-373.334c-14.747 0-26.667-11.919-26.667-26.668 0-14.746 11.92-26.664 26.667-26.664h373.334c14.746 0 26.664 11.919 26.664 26.664 0 14.749-11.919 26.668-26.664 26.668zM685.864 430.932h-373.334c-14.747 0-26.667-11.919-26.667-26.664s11.92-26.668 26.667-26.668h373.334c14.746 0 26.664 11.922 26.664 26.668s-11.919 26.664-26.664 26.664zM685.864 324.268h-373.334c-14.747 0-26.667-11.922-26.667-26.668 0-14.72 11.92-26.668 26.667-26.668h373.334c14.746 0 26.664 11.948 26.664 26.668 0 14.746-11.919 26.668-26.664 26.668zM685.864 217.6h-373.334c-14.747 0-26.667-11.919-26.667-26.668 0-14.72 11.92-26.664 26.667-26.664h373.334c14.746 0 26.664 11.944 26.664 26.664 0 14.749-11.919 26.668-26.664 26.668z" />
<glyph unicode="&#xe902;" glyph-name="arr-crum" d="M930.909 448l-768-443.401v886.806l768-443.405z" />
<glyph unicode="&#xe903;" glyph-name="arr-l" d="M512 960c-282.8 0-512-229.2-512-512 0-282.798 229.2-512 512-512 282.798 0 512 229.202 512 512 0 282.8-229.202 512-512 512zM621.199 269.199c25.001-25.001 25.001-65.5 0-90.501-25.001-24.996-65.5-24.996-90.501 0l-223.998 224c-12.5 12.503-18.7 28.902-18.7 45.302s6.25 32.76 18.75 45.24l223.999 224c25.001 25 65.5 25 90.501 0s25.001-65.5 0-90.5l-178.651-178.74 178.599-178.801z" />
<glyph unicode="&#xe904;" glyph-name="arr-l-last" d="M711.733-10.568c19.821 24.158 19.821 63.324 0 87.482l-302.473 368.689 302.473 368.687c19.821 24.159 19.821 63.331 0 87.49s-51.956 24.16-71.775 0l-338.366-412.435c-9.522-11.596-14.868-27.333-14.868-43.741 0-16.404 5.346-32.145 14.868-43.741l338.366-412.43c19.819-24.162 51.955-24.162 71.775 0z" />
<glyph unicode="&#xe905;" glyph-name="arrow" d="M803.154 871.577c20.557 19.416 21.484 51.82 2.068 72.378s-51.82 21.484-72.376 2.068l70.308-74.446zM307.2 473.6l-35.155 37.223-38.302-36.174 37.253-37.253 36.204 36.204zM731.796-23.404c19.994-19.994 52.413-19.994 72.407 0s19.994 52.413 0 72.407l-72.407-72.407zM732.846 946.023l-460.801-435.2 70.31-74.445 460.799 435.199-70.308 74.446zM270.996 437.396l460.801-460.8 72.407 72.407-460.799 460.801-72.408-72.408z" />
<glyph unicode="&#xe906;" glyph-name="arr-r" d="M512 960c282.798 0 512-229.2 512-512 0-282.798-229.202-512-512-512-282.8 0-512 229.202-512 512 0 282.8 229.2 512 512 512zM402.8 269.199c-25-25.001-25-65.5 0-90.501 25-24.996 65.5-24.996 90.5 0l224.002 224c12.498 12.503 18.698 28.902 18.698 45.302s-6.252 32.76-18.749 45.24l-224.001 224c-25 25-65.5 25-90.5 0s-25-65.5 0-90.5l178.652-178.74-178.601-178.801z" />
<glyph unicode="&#xe907;" glyph-name="burger" d="M213.333 789.333h625.778c23.564 0 42.667-19.103 42.667-42.667s-19.103-42.667-42.667-42.667h-625.778c-23.564 0-42.667 19.103-42.667 42.667s19.103 42.667 42.667 42.667zM213.333 504.889h625.778c23.564 0 42.667-19.103 42.667-42.667s-19.103-42.667-42.667-42.667h-625.778c-23.564 0-42.667 19.103-42.667 42.667s19.103 42.667 42.667 42.667zM213.333 220.444h625.778c23.564 0 42.667-19.103 42.667-42.667s-19.103-42.667-42.667-42.667h-625.778c-23.564 0-42.667 19.103-42.667 42.667s19.103 42.667 42.667 42.667z" />
<glyph unicode="&#xe908;" glyph-name="card" d="M855.303 674.303h-25.71v25.71c0 20.456-8.126 40.074-22.59 54.539s-34.085 22.591-54.539 22.591h-565.62c-20.456 0-40.074-8.126-54.539-22.591s-22.591-34.083-22.591-54.539v-411.358c0-20.458 8.126-40.075 22.591-54.539 14.465-14.468 34.083-22.594 54.539-22.594h25.71v-25.71c0-20.454 8.126-40.075 22.591-54.539s34.083-22.59 54.539-22.59h565.619c20.458 0 40.075 8.126 54.539 22.59s22.59 34.085 22.59 54.539v411.361c0 20.456-8.126 40.074-22.59 54.539s-34.081 22.591-54.539 22.591zM881.013 597.173v-25.712h-617.039v25.712c0 6.819 2.708 13.358 7.53 18.18s11.361 7.53 18.18 7.53h565.619c6.821 0 13.36-2.708 18.18-7.53 4.824-4.822 7.53-11.361 7.53-18.18zM881.013 417.203h-617.039v102.839h617.039v-102.839zM186.844 262.941c-6.819 0-13.358 2.71-18.18 7.534-4.822 4.82-7.53 11.359-7.53 18.18v411.358c0 6.819 2.708 13.358 7.53 18.18s11.361 7.53 18.18 7.53h565.62c6.817 0 13.36-2.708 18.18-7.53s7.53-11.361 7.53-18.18v-25.71h-488.49c-20.456 0-40.074-8.126-54.539-22.591s-22.591-34.083-22.591-54.539v-334.232h-25.71zM855.303 160.102h-565.619c-6.819 0-13.358 2.71-18.18 7.53-4.822 4.824-7.53 11.363-7.53 18.18v179.972h617.039v-179.972c0-6.817-2.706-13.356-7.53-18.18-4.82-4.82-11.359-7.53-18.18-7.53zM495.364 262.941h-51.423c-6.817 0-13.356-2.706-18.18-7.53-4.82-4.82-7.53-11.359-7.53-18.18 0-6.817 2.71-13.36 7.53-18.18 4.824-4.82 11.363-7.53 18.18-7.53h51.423c6.817 0 13.356 2.71 18.18 7.53 4.82 4.82 7.53 11.363 7.53 18.18 0 6.821-2.71 13.36-7.53 18.18-4.824 4.824-11.363 7.53-18.18 7.53zM649.622 262.941h-51.419c-6.821 0-13.36-2.706-18.18-7.53-4.824-4.82-7.53-11.359-7.53-18.18 0-6.817 2.706-13.36 7.53-18.18 4.82-4.82 11.359-7.53 18.18-7.53h51.419c6.817 0 13.356 2.71 18.18 7.53 4.82 4.82 7.53 11.363 7.53 18.18 0 6.821-2.71 13.36-7.53 18.18-4.824 4.824-11.363 7.53-18.18 7.53zM803.88 262.941h-51.419c-6.821 0-13.36-2.706-18.18-7.53-4.824-4.82-7.53-11.359-7.53-18.18 0-6.817 2.706-13.36 7.53-18.18 4.82-4.82 11.359-7.53 18.18-7.53h51.419c6.817 0 13.36 2.71 18.18 7.53s7.53 11.363 7.53 18.18c0 6.821-2.71 13.36-7.53 18.18-4.82 4.824-11.363 7.53-18.18 7.53z" />
<glyph unicode="&#xe909;" glyph-name="card-active" d="M794.928 777.143h-595.777c-15.684 0-28.331-12.683-28.331-28.367s12.647-28.295 28.331-28.295h595.777c39.728 0 72.060-32.404 72.060-72.132v-2.751h-667.837c-15.684 0-28.331-12.612-28.331-28.296 0-15.648 12.647-28.33 28.331-28.33h667.837v-306.787c0-39.691-32.333-72.097-72.060-72.097h-593.026c-39.728 0-72.061 32.406-72.061 72.097v368.986c0 15.684-12.683 28.367-28.331 28.367-15.684 0-28.367-12.683-28.367-28.367v-368.986c0-71.022 57.77-128.757 128.759-128.757h593.026c70.989 0 128.794 57.735 128.794 128.757v366.163c0 71.024-57.805 128.794-128.794 128.794v0zM778.386 372.432c15.649 0 28.368 12.683 28.368 28.332 0 15.718-12.72 28.328-28.368 28.328h-281.348c-15.682 0-28.365-12.61-28.365-28.328 0-15.649 12.683-28.332 28.365-28.332h281.348zM241.379 444.705h87.887v-87.848h-87.887v87.848zM357.598 300.12c15.683 0 28.366 12.683 28.366 28.405v144.549c0 15.649-12.683 28.368-28.366 28.368h-144.55c-15.684 0-28.331-12.72-28.331-28.368v-144.549c0-15.722 12.647-28.405 28.331-28.405h144.55z" />
<glyph unicode="&#xe90a;" glyph-name="arr-rb" d="M529.065 806.4c-207.363 0-375.465-168.102-375.465-375.465 0-207.365 168.102-375.47 375.465-375.47 207.365 0 375.47 168.105 375.47 375.47 0 207.363-168.105 375.465-375.47 375.465zM51.2 430.935c0 263.917 213.948 477.865 477.865 477.865 263.921 0 477.87-213.948 477.87-477.865 0-263.921-213.949-477.87-477.87-477.87-263.917 0-477.865 213.949-477.865 477.87zM697.313 310.257c0-28.278-22.922-51.2-51.2-51.2h-241.36c-28.277 0-51.2 22.922-51.2 51.2 0 28.273 22.923 51.2 51.2 51.2h190.16v190.157c0 28.277 22.922 51.2 51.2 51.2s51.2-22.923 51.2-51.2v-241.357zM682.322 274.053c-19.994-19.994-52.413-19.994-72.407 0l-241.36 241.358c-19.995 19.995-19.995 52.413 0 72.408s52.413 19.995 72.408 0l241.36-241.359c19.994-19.994 19.994-52.413 0-72.407z" />
<glyph unicode="&#xe90b;" glyph-name="dogovor" d="M666.483 58.958h-308.966c-40.956 0.049-80.221 16.342-109.182 45.303s-45.252 68.223-45.301 109.18v494.346c0.049 40.956 16.341 80.221 45.301 109.182s68.225 45.252 109.182 45.301h185.379c4.364 0.005 8.679-0.915 12.666-2.699 3.983-1.784 7.542-4.392 10.445-7.652l247.172-278.069c5.011-5.671 7.779-12.977 7.786-20.547v-339.862c-0.049-40.956-16.342-80.218-45.3-109.18-28.962-28.962-68.227-45.254-109.183-45.303zM357.517 800.476c-24.583 0-48.159-9.765-65.542-27.148s-27.148-40.959-27.148-65.541v-494.346c0-24.583 9.765-48.156 27.148-65.54s40.959-27.15 65.542-27.15h308.966c24.583 0 48.16 9.767 65.543 27.15 17.38 17.383 27.147 40.956 27.147 65.54v328.121l-230.149 258.915h-171.506zM790.069 522.409h-185.379c-24.583 0-48.16 9.763-65.543 27.147-17.38 17.383-27.147 40.96-27.147 65.542v216.276c-0.007 6.271 1.893 12.396 5.448 17.562s8.602 9.126 14.463 11.356c5.862 2.23 12.263 2.623 18.351 1.128 6.091-1.495 11.582-4.809 15.745-9.5l247.172-278.070c3.965-4.453 6.557-9.954 7.461-15.847 0.907-5.893 0.092-11.921-2.352-17.359s-6.409-10.053-11.416-13.291c-5.007-3.234-10.844-4.951-16.804-4.943v0zM573.793 750.116v-135.018c0-8.194 3.256-16.054 9.050-21.849s13.651-9.047 21.847-9.047h116.574l-147.47 165.913zM635.586 213.44h-247.172c-8.196 0-16.052 3.256-21.847 9.050s-9.049 13.655-9.049 21.847c0 8.196 3.255 16.056 9.049 21.85 5.795 5.794 13.652 9.047 21.847 9.047h247.172c8.196 0 16.052-3.252 21.847-9.047s9.050-13.655 9.050-21.85c0-8.192-3.256-16.052-9.050-21.847s-13.651-9.050-21.847-9.050zM635.586 337.027h-247.172c-8.196 0-16.052 3.256-21.847 9.050s-9.049 13.655-9.049 21.847c0 8.196 3.255 16.056 9.049 21.85 5.795 5.794 13.652 9.047 21.847 9.047h247.172c8.196 0 16.052-3.252 21.847-9.047s9.050-13.655 9.050-21.85c0-8.192-3.256-16.052-9.050-21.847s-13.651-9.050-21.847-9.050zM481.103 460.613h-92.69c-8.196 0-16.052 3.256-21.847 9.050s-9.049 13.655-9.049 21.847c0 8.196 3.255 16.056 9.049 21.85 5.795 5.794 13.652 9.047 21.847 9.047h92.69c8.196 0 16.052-3.252 21.847-9.047s9.050-13.655 9.050-21.85c0-8.192-3.256-16.052-9.050-21.847s-13.651-9.050-21.847-9.050z" />
<glyph unicode="&#xe90c;" glyph-name="copy" d="M486.396 507.735c-18.851 0-34.134-15.282-34.134-34.134v-384.001c0-18.852 15.282-34.13 34.134-34.13h383.999c18.852 0 34.135 15.278 34.135 34.13v384.001c0 18.851-15.283 34.134-34.135 34.134h-383.999zM349.862 473.601c0 75.405 61.128 136.534 136.534 136.534h383.999c75.407 0 136.535-61.128 136.535-136.534v-384.001c0-75.402-61.128-136.53-136.535-136.53h-383.999c-75.405 0-136.534 61.128-136.534 136.53v384.001zM187.734 806.4c-9.053 0-17.735-3.596-24.136-9.997s-9.997-15.084-9.997-24.136v-384.002c0-9.052 3.596-17.731 9.997-24.136 6.402-6.4 15.084-9.994 24.136-9.994h42.666c28.277 0 51.2-22.922 51.2-51.2s-22.923-51.2-51.2-51.2h-42.666c-36.211 0-70.939 14.382-96.544 39.987s-39.99 60.334-39.99 96.543v384.002c0 36.211 14.385 70.939 39.99 96.544s60.333 39.99 96.544 39.99h384.002c36.209 0 70.938-14.385 96.543-39.99s39.987-60.333 39.987-96.544v-42.666c0-28.277-22.922-51.2-51.2-51.2s-51.2 22.923-51.2 51.2v42.666c0 9.053-3.594 17.735-9.994 24.136-6.405 6.401-15.084 9.997-24.136 9.997h-384.002z" />
<glyph unicode="&#xe90d;" glyph-name="exit" d="M398.228 244.824h-79.647c-21.99 0-39.823 18.199-39.823 40.636v325.080c0 22.437 17.832 40.636 39.823 40.636h79.647c21.99 0 39.825 18.196 39.825 40.634s-17.798 40.635-39.825 40.635h-79.647c-65.982 0-119.47-54.578-119.47-121.904v-325.080c0-67.328 53.488-121.904 119.47-121.904h79.647c21.99 0 39.825 18.196 39.825 40.636 0 22.437-17.798 40.633-39.825 40.633zM824.587 476.698l-159.292 162.54c-15.57 15.886-40.769 15.861-56.314 0-15.556-15.872-15.556-41.586 0-57.461l91.409-93.141h-262.337c-22.027 0-39.825-18.159-39.825-40.636s17.809-40.636 39.825-40.636h262.337l-91.321-93.181c-15.556-15.872-15.556-41.586 0-57.461 15.556-15.872 40.755-15.872 56.311 0l159.295 162.54c15.468 15.912 15.468 41.563-0.088 57.435z" />
<glyph unicode="&#xe90e;" glyph-name="help" d="M508.705 814.27c-200.356 0-362.964-162.608-362.964-362.964s162.608-362.964 362.964-362.964c200.357 0 362.964 162.608 362.964 362.964s-162.608 362.964-362.964 362.964zM508.705 160.933c-160.067 0-290.371 130.304-290.371 290.373 0 160.067 130.304 290.371 290.371 290.371 160.069 0 290.373-130.304 290.373-290.371 0-160.069-130.304-290.373-290.373-290.373zM472.408 306.121h72.594v-72.594h-72.594v72.594zM530.845 667.632c-74.77 10.889-140.829-35.207-160.794-101.265-6.532-21.054 9.439-42.47 31.579-42.47h7.259c14.881 0 26.858 10.529 31.941 24.32 11.615 32.304 46.095 54.445 83.482 46.46 34.48-7.259 59.889-41.014 56.986-76.222-3.632-48.636-58.8-59.165-88.927-104.536 0-0.362-0.362-0.362-0.362-0.724-0.362-0.728-0.728-1.090-1.090-1.814-3.266-5.445-6.532-11.615-9.073-18.15-0.362-1.090-1.090-1.814-1.452-2.904-0.362-0.724-0.362-1.452-0.728-2.542-4.356-12.339-7.259-27.22-7.259-45.371h72.594c0 15.247 3.994 27.952 10.163 38.839 0.724 1.090 1.090 2.176 1.814 3.266 2.904 5.083 6.535 9.801 10.163 14.157 0.362 0.362 0.728 1.090 1.090 1.452 3.628 4.356 7.621 8.349 11.977 12.339 34.845 33.031 82.030 59.889 72.229 129.218-8.711 63.154-58.437 116.51-121.593 125.947z" />
<glyph unicode="&#xe90f;" glyph-name="history" d="M321.443 87.786h-181.482c-8.022 0-15.715 3.185-21.388 8.858s-8.859 13.367-8.859 21.391v302.468c0 8.024 3.187 15.715 8.859 21.391 5.673 5.672 13.366 8.858 21.388 8.858h181.482c8.022 0 15.715-3.185 21.388-8.858 5.672-5.676 8.859-13.367 8.859-21.391v-302.468c0-8.024-3.187-15.718-8.859-21.391s-13.366-8.858-21.388-8.858zM170.209 148.279h120.988v241.979h-120.988v-241.979zM593.668 87.786h-181.482c-8.024 0-15.715 3.185-21.391 8.858-5.672 5.672-8.858 13.367-8.858 21.387v483.954c0 8.022 3.185 15.715 8.858 21.388 5.676 5.673 13.367 8.859 21.391 8.859h181.482c8.020 0 15.715-3.187 21.387-8.859s8.858-13.366 8.858-21.388v-483.954c0-8.020-3.185-15.715-8.858-21.387s-13.367-8.858-21.387-8.858zM442.43 148.279h120.989v423.461h-120.989v-423.461zM865.891 87.786h-181.482c-8.024 0-15.715 3.185-21.391 8.858-5.672 5.672-8.858 13.367-8.858 21.387v665.437c0 8.022 3.185 15.715 8.858 21.388 5.676 5.672 13.367 8.859 21.391 8.859h181.482c8.020 0 15.715-3.187 21.387-8.859s8.858-13.366 8.858-21.388v-665.437c0-8.020-3.185-15.715-8.858-21.387s-13.367-8.858-21.387-8.858zM714.653 148.279h120.989v604.941h-120.989v-604.941z" />
<glyph unicode="&#xe910;" glyph-name="login" d="M512 32c-82.276 0-162.705 24.397-231.117 70.11-68.411 45.71-121.731 110.68-153.217 186.692-31.486 76.015-39.724 159.659-23.673 240.356s55.672 154.82 113.85 212.999c58.179 58.179 132.302 97.799 212.999 113.85s164.341 7.813 240.356-23.673c76.012-31.486 140.982-84.806 186.692-153.217 45.713-68.412 70.11-148.842 70.11-231.117 0-110.33-43.827-216.141-121.845-294.155-78.015-78.017-183.825-121.845-294.155-121.845zM512 800c-69.618 0-137.674-20.644-195.561-59.323-57.885-38.678-103.002-93.654-129.644-157.973s-33.613-135.094-20.031-203.375c13.582-68.284 47.107-131.004 96.335-180.233 49.227-49.226 111.947-82.751 180.231-96.333 68.281-13.582 139.056-6.61 203.375 20.031 64.321 26.641 119.296 71.76 157.972 129.644 38.679 57.887 59.324 125.943 59.324 195.561 0 93.355-37.086 182.889-103.097 248.901-66.014 66.013-155.546 103.098-248.903 103.098zM512 416c-31.644 0-62.581 9.384-88.892 26.965s-46.82 42.57-58.928 71.805c-12.112 29.235-15.28 61.406-9.105 92.444 6.172 31.036 21.413 59.546 43.787 81.922 22.377 22.376 50.887 37.615 81.923 43.789 31.039 6.174 63.209 3.005 92.444-9.105s54.224-32.618 71.805-58.929c17.582-26.311 26.965-57.247 26.965-88.892 0-42.433-16.856-83.132-46.862-113.138s-70.704-46.862-113.138-46.862zM512 672c-18.987 0-37.547-5.629-53.333-16.179-15.79-10.547-28.092-25.54-35.359-43.082-7.265-17.542-9.168-36.844-5.461-55.467 3.703-18.623 12.846-35.729 26.271-49.155s30.532-22.568 49.155-26.274c18.623-3.703 37.925-1.801 55.467 5.464s32.535 19.57 43.082 35.356c10.55 15.79 16.179 34.35 16.179 53.336 0 25.461-10.115 49.877-28.117 67.883-18.002 18.002-42.422 28.117-67.883 28.117zM817.596 192c-4.443-0.031-8.841 0.865-12.919 2.628-4.076 1.761-7.74 4.355-10.761 7.612-33.966 37.049-75.253 66.642-121.244 86.915-45.995 20.27-95.696 30.771-145.957 30.845h-29.44c-93.687 0.202-183.78-36.065-251.199-101.12-6.229-5.14-14.172-7.737-22.234-7.265s-15.648 3.974-21.236 9.805c-5.588 5.831-8.764 13.559-8.892 21.635s2.802 15.9 8.203 21.905c79.228 76.578 185.174 119.276 295.359 119.040h29.44c59.079-0.134 117.493-12.484 171.571-36.275 54.079-23.788 102.65-58.505 142.669-101.965 4.23-4.56 7.037-10.251 8.084-16.381 1.044-6.13 0.282-12.43-2.196-18.133s-6.565-10.559-11.759-13.978c-5.194-3.419-11.27-5.248-17.488-5.268z" />
<glyph unicode="&#xe911;" glyph-name="login2" d="M754.525 582.737v107.79h53.899c89.293 0 161.684-72.389 161.684-161.684v-431.159c0-89.293-72.391-161.684-161.684-161.684h-646.74c-89.296 0-161.684 72.391-161.684 161.684v431.159c0 89.295 72.388 161.684 161.684 161.684h53.895v-107.79h-53.895c-29.765 0-53.895-24.13-53.895-53.894v-431.159c0-29.762 24.13-53.893 53.895-53.893h646.74c29.762 0 53.893 24.13 53.893 53.893v431.159c0 29.765-24.13 53.894-53.893 53.894h-53.899zM541.363 472.4l63.14 62.395c21.992 21.73 57.645 21.73 79.637 0 21.986-21.73 21.986-56.963 0-78.693l-199.088-196.734-199.086 196.734c-21.99 21.73-21.99 56.963 0 78.693s57.644 21.73 79.635 0l63.142-62.395v431.956c0 30.732 25.211 55.645 56.31 55.645s56.31-24.913 56.31-55.645v-431.956z" />
<glyph unicode="&#xe912;" glyph-name="map" d="M702.011 348.734c-7.892-0.048-15.492 2.992-21.175 8.47l-128.245 124.010c-19.694 18.834-35.365 41.465-46.069 66.52-10.708 25.059-16.227 52.024-16.227 79.272s5.519 54.214 16.227 79.271c10.704 25.057 26.375 47.685 46.069 66.52v0c40.309 38.32 93.802 59.687 149.42 59.687s109.107-21.368 149.42-59.687c19.69-18.835 35.361-41.463 46.069-66.52 10.704-25.057 16.227-52.022 16.227-79.271s-5.522-54.213-16.227-79.272c-10.708-25.055-26.379-47.685-46.069-66.52l-128.249-124.010c-5.683-5.478-13.279-8.517-21.171-8.47zM702.011 772.192c-40.027 0.245-78.563-15.169-107.377-42.951v0c-13.875-13.169-24.923-29.024-32.475-46.6s-11.443-36.506-11.443-55.635c0-19.129 3.891-38.060 11.443-55.636s18.6-33.43 32.475-46.599l107.377-103.746 107.377 103.746c13.875 13.169 24.923 29.023 32.472 46.599 7.552 17.576 11.447 36.507 11.447 55.636s-3.895 38.059-11.447 55.635c-7.548 17.576-18.597 33.431-32.472 46.6-28.851 27.727-67.365 43.132-107.377 42.951v0zM369.287 46.263c-5.297-0.037-10.512 1.32-15.122 3.931l-211.73 120.989c-4.616 2.666-8.445 6.502-11.101 11.121-2.656 4.623-4.043 9.863-4.022 15.192v544.449c-0.021 5.33 1.366 10.571 4.022 15.191s6.486 8.459 11.101 11.123c4.598 2.655 9.814 4.052 15.124 4.052s10.525-1.398 15.123-4.052l211.73-120.988c4.615-2.665 8.444-6.502 11.099-11.123 2.659-4.621 4.045-9.862 4.023-15.192v-544.446c0.022-5.332-1.364-10.573-4.023-15.192-2.655-4.623-6.484-8.459-11.099-11.125-4.612-2.611-9.827-3.968-15.126-3.931v0zM187.807 215.040l151.235-86.506v474.88l-151.235 86.507v-474.88zM369.291 46.263c-5.298-0.037-10.513 1.32-15.123 3.931-4.616 2.666-8.445 6.502-11.101 11.125-2.656 4.619-4.043 9.86-4.022 15.192v544.445c-0.021 5.33 1.366 10.571 4.022 15.192s6.486 8.458 11.101 11.123l181.482 103.747c3.471 1.988 7.3 3.268 11.268 3.765s7.995 0.204 11.849-0.865c3.855-1.069 7.457-2.891 10.602-5.362s5.767-5.541 7.72-9.032c3.942-6.945 4.977-15.168 2.882-22.875s-7.157-14.271-14.073-18.261l-166.36-94.976v-474.879l166.36 95.28c3.456 1.986 7.267 3.269 11.22 3.785 3.953 0.512 7.969 0.241 11.816-0.801 3.847-1.039 7.453-2.823 10.609-5.259 3.16-2.432 5.804-5.46 7.79-8.916 1.989-3.456 3.273-7.27 3.785-11.224s0.241-7.965-0.797-11.816c-1.039-3.847-2.827-7.453-5.259-10.609s-5.464-5.804-8.92-7.79l-211.727-120.989c-4.612-2.611-9.827-3.968-15.126-3.931v0zM792.744 46.263c-5.299-0.037-10.514 1.32-15.122 3.931l-211.73 120.989c-4.615 2.666-8.444 6.502-11.103 11.121-2.655 4.623-4.041 9.863-4.019 15.192v272.227c0 8.020 3.185 15.715 8.858 21.387s13.367 8.858 21.387 8.858c8.024 0 15.718-3.185 21.391-8.858s8.858-13.367 8.858-21.387v-254.683l151.234-86.506v310.941c0 8.020 3.189 15.715 8.861 21.387s13.367 8.861 21.387 8.861c8.024 0 15.715-3.189 21.387-8.861s8.861-13.367 8.861-21.387v-362.964c0.022-5.332-1.368-10.573-4.023-15.192-2.655-4.623-6.484-8.459-11.103-11.125-4.608-2.611-9.823-3.968-15.122-3.931zM702.011 530.216c-17.949 0-35.493 5.321-50.414 15.291-14.925 9.973-26.555 24.144-33.423 40.726-6.868 16.579-8.664 34.824-5.164 52.426 3.504 17.602 12.145 33.771 24.836 46.461s28.859 21.333 46.46 24.834c17.602 3.501 35.847 1.704 52.429-5.164s30.753-18.499 40.722-33.421c9.969-14.922 15.294-32.466 15.294-50.413 0-24.066-9.56-47.147-26.58-64.164-17.017-17.017-40.097-26.576-64.161-26.576zM702.011 651.203c-5.983 0-11.831-1.774-16.805-5.097s-8.854-8.048-11.143-13.575c-2.286-5.527-2.885-11.609-1.719-17.476s4.048-11.257 8.276-15.487c4.231-4.23 9.622-7.111 15.488-8.278s11.948-0.567 17.477 1.723c5.526 2.288 10.251 6.165 13.572 11.139 3.324 4.974 5.098 10.822 5.098 16.805 0 8.022-3.185 15.715-8.858 21.388s-13.367 8.859-21.387 8.859z" />
<glyph unicode="&#xe913;" glyph-name="mess" d="M171.556 85.296c-3.848-0.1-7.665 0.705-11.147 2.347-5.357 2.202-9.942 5.936-13.179 10.741-3.237 4.801-4.979 10.456-5.008 16.245v534.454c0.419 18.839 4.545 37.41 12.144 54.653s18.52 32.82 32.14 45.841c13.62 13.021 29.673 23.231 47.24 30.046s36.305 10.103 55.142 9.674h469.333c18.839 0.428 37.578-2.859 55.145-9.674s33.618-17.025 47.238-30.046c13.622-13.021 24.542-28.598 32.142-45.841 7.598-17.243 11.725-35.814 12.143-54.653v-276.907c-0.418-18.839-4.545-37.41-12.143-54.653-7.6-17.243-18.52-32.819-32.142-45.838-13.619-13.022-29.67-23.231-47.238-30.046-17.567-6.818-36.306-10.103-55.145-9.677h-427.972l-137.866-138.158c-2.741-2.719-5.992-4.87-9.566-6.332-3.574-1.459-7.401-2.199-11.261-2.176zM288.887 730.63c-22.465 0.794-44.333-7.338-60.822-22.618s-26.26-36.467-27.176-58.929v-463.758l96.506 96.799c2.742 2.719 5.993 4.87 9.566 6.329s7.401 2.199 11.261 2.176h439.999c22.468-0.794 44.336 7.339 60.826 22.619s26.26 36.466 27.176 58.928v276.907c-0.916 22.463-10.687 43.649-27.176 58.929s-38.357 23.412-60.826 22.618h-469.333zM523.554 466.631c24.303 0 44.001 19.701 44.001 44.001s-19.698 44.001-44.001 44.001c-24.3 0-43.998-19.701-43.998-44.001s19.698-44.001 43.998-44.001zM684.888 466.631c24.3 0 44.001 19.701 44.001 44.001s-19.701 44.001-44.001 44.001c-24.3 0-44.001-19.701-44.001-44.001s19.701-44.001 44.001-44.001zM362.223 466.631c24.3 0 43.998 19.701 43.998 44.001s-19.698 44.001-43.998 44.001c-24.3 0-44.001-19.701-44.001-44.001s19.701-44.001 44.001-44.001z" />
<glyph unicode="&#xe914;" glyph-name="mess1" d="M125.469 62.76c-4.115-0.106-8.197 0.755-11.92 2.511-5.728 2.351-10.632 6.349-14.093 11.484s-5.324 11.181-5.355 17.374v571.511c0.448 20.145 4.861 40.004 12.986 58.442s19.804 35.096 34.368 49.020c14.565 13.924 31.73 24.841 50.515 32.129s38.822 10.803 58.967 10.345h501.876c20.146 0.458 40.183-3.057 58.967-10.345s35.95-18.206 50.517-32.129c14.564-13.924 26.241-30.581 34.368-49.020 8.124-18.438 12.535-38.297 12.986-58.442v-296.108c-0.451-20.142-4.862-40.004-12.986-58.44-8.128-18.44-19.805-35.097-34.368-49.019-14.567-13.926-31.733-24.841-50.517-32.131s-38.821-10.805-58.967-10.346h-457.648l-147.426-147.74c-2.931-2.905-6.407-5.207-10.229-6.766-3.822-1.563-7.914-2.351-12.042-2.329zM250.938 752.84c-24.025 0.849-47.409-7.846-65.041-24.187s-28.081-38.995-29.060-63.015v-495.917l103.198 103.511c2.931 2.909 6.407 5.207 10.229 6.77 3.822 1.559 7.914 2.351 12.042 2.329h470.509c24.026-0.85 47.411 7.847 65.043 24.185s28.080 38.995 29.059 63.014v296.108c-0.978 24.020-11.427 46.675-29.059 63.015s-41.017 25.035-65.043 24.187h-501.876zM501.874 470.52c25.987 0 47.051 21.068 47.051 47.051 0 25.987-21.064 47.052-47.051 47.052-25.983 0-47.051-21.066-47.051-47.052 0-25.983 21.068-47.051 47.051-47.051zM674.395 470.52c25.983 0 47.051 21.068 47.051 47.051 0 25.987-21.068 47.052-47.051 47.052-25.987 0-47.051-21.066-47.051-47.052 0-25.983 21.064-47.051 47.051-47.051zM329.356 470.52c25.986 0 47.051 21.068 47.051 47.051 0 25.987-21.066 47.052-47.051 47.052s-47.051-21.066-47.051-47.052c0-25.983 21.066-47.051 47.051-47.051z" />
<glyph unicode="&#xe915;" glyph-name="nav" d="M520.525 46.263c-3.979-0.022-7.925 0.742-11.611 2.245-3.686 1.507-7.036 3.723-9.863 6.528l-213.847 211.73c-30.874 30.669-55.377 67.145-72.098 107.323-16.72 40.181-25.329 83.269-25.329 126.789 0 43.516 8.608 86.608 25.329 126.787s41.223 76.654 72.098 107.324c62.673 61.917 147.221 96.638 235.322 96.638s172.65-34.721 235.323-96.638c30.874-30.671 55.376-67.146 72.097-107.324s25.329-83.27 25.329-126.787c0-43.52-8.609-86.608-25.329-126.789-16.72-40.177-41.223-76.654-72.097-107.323l-213.848-211.73c-2.827-2.805-6.177-5.021-9.863-6.528-3.683-1.503-7.629-2.267-11.611-2.245zM520.525 772.194c-72.192 0.177-141.499-28.329-192.674-79.247v0c-25.204-25.047-45.207-54.831-58.856-87.638s-20.676-67.99-20.676-103.522c0-35.533 7.027-70.718 20.676-103.523 13.649-32.808 33.652-62.592 58.856-87.64l192.674-191.462 192.673 191.462c25.205 25.048 45.206 54.832 58.858 87.64 13.648 32.805 20.674 67.99 20.674 103.523s-7.025 70.715-20.674 103.522c-13.652 32.807-33.653 62.591-58.858 87.638-51.174 50.919-120.481 79.424-192.673 79.247v0zM520.521 348.734c-29.912 0-59.151 8.869-84.023 25.487-24.869 16.618-44.255 40.24-55.702 67.873-11.447 27.637-14.438 58.043-8.605 87.38 5.837 29.338 20.239 56.283 41.392 77.436 21.149 21.151 48.099 35.554 77.433 41.39 29.338 5.835 59.747 2.84 87.38-8.606 27.637-11.446 51.255-30.831 67.873-55.702 16.618-24.869 25.487-54.111 25.487-84.019 0-40.112-15.934-78.577-44.295-106.942-28.361-28.361-66.827-44.295-106.939-44.295zM520.521 590.713c-17.946 0-35.493-5.325-50.414-15.294s-26.551-24.141-33.419-40.722c-6.868-16.581-8.667-34.827-5.164-52.429 3.5-17.602 12.142-33.77 24.832-46.46s28.859-21.332 46.46-24.836c17.602-3.5 35.847-1.704 52.429 5.164s30.753 18.498 40.722 33.423c9.973 14.921 15.294 32.464 15.294 50.414 0 24.064-9.56 47.144-26.576 64.161s-40.097 26.58-64.165 26.58v0z" />
<glyph unicode="&#xe916;" glyph-name="nav2" d="M502.276-7.306c-4.675-0.031-9.314 0.868-13.641 2.636-4.332 1.768-8.272 4.376-11.589 7.667l-251.268 248.779c-36.277 36.040-65.067 78.897-84.713 126.108-19.646 47.206-29.761 97.837-29.761 148.971s10.114 101.763 29.761 148.973c19.647 47.21 48.437 90.067 84.713 126.104 73.639 72.75 172.984 113.547 276.498 113.547 103.517 0 202.859-40.797 276.498-113.547 36.281-36.038 65.069-78.895 84.716-126.104s29.758-97.839 29.758-148.973c0-51.135-10.111-101.765-29.758-148.971-19.647-47.211-48.435-90.067-84.716-126.108l-251.263-248.779c-3.321-3.29-7.261-5.899-11.589-7.667-4.332-1.768-8.967-2.667-13.646-2.636zM502.276 845.645c-84.823 0.208-166.257-33.285-226.387-93.114v0c-29.615-29.43-53.117-64.426-69.155-102.973s-24.294-79.887-24.294-121.638c0-41.751 8.257-83.090 24.294-121.637s39.54-73.545 69.155-102.974l226.387-224.968 226.389 224.968c29.616 29.429 53.119 64.427 69.156 102.974s24.291 79.885 24.291 121.637c0 41.751-8.254 83.090-24.291 121.638s-39.54 73.543-69.156 102.973c-60.131 59.828-141.566 93.322-226.389 93.114v0zM502.276 348.089c-35.147 0-69.503 10.423-98.726 29.95-29.222 19.523-51.999 47.278-65.448 79.747s-16.969 68.199-10.112 102.669c6.856 34.47 23.78 66.133 48.632 90.984s56.515 41.776 90.985 48.632c34.469 6.857 70.197 3.337 102.672-10.112 32.47-13.45 60.22-36.226 79.747-65.448s29.945-63.578 29.945-98.724c0-47.13-18.721-92.329-52.046-125.653s-78.523-52.046-125.649-52.046zM502.276 632.407c-21.090 0-41.703-6.253-59.236-17.969s-31.199-28.367-39.269-47.849c-8.070-19.482-10.181-40.919-6.067-61.601 4.114-20.68 14.268-39.682 29.18-54.593s33.909-25.066 54.592-29.18c20.68-4.114 42.118-1.999 61.6 6.068 19.483 8.072 36.134 21.736 47.848 39.268 11.718 17.533 17.969 38.146 17.969 59.236 0 28.277-11.233 55.396-31.228 75.391s-47.113 31.228-75.389 31.228v0z" />
<glyph unicode="&#xe917;" glyph-name="notice" d="M501.333 106.667c39.111 0 71.111 32 71.111 71.111h-142.222c0-39.111 32-71.111 71.111-71.111zM732.444 320v195.556c0 110.222-74.667 199.111-177.778 224v24.889c0 28.444-24.889 53.333-53.333 53.333s-53.333-24.889-53.333-53.333v-24.889c-103.111-24.889-177.778-113.778-177.778-224v-195.556l-71.111-71.111v-35.556h604.444v35.556l-71.111 71.111zM661.333 284.444h-320v231.111c0 88.889 71.111 160 160 160s160-71.111 160-160v-231.111z" />
<glyph unicode="&#xe918;" glyph-name="notice2" d="M508.698 15.744c47.912 0 87.109 39.197 87.109 87.109h-174.223c0-47.912 39.201-87.109 87.113-87.109zM791.808 277.076v239.557c0 135.022-91.465 243.912-217.779 274.401v30.489c0 34.845-30.486 65.334-65.331 65.334s-65.335-30.489-65.335-65.334v-30.489c-126.311-30.489-217.778-139.378-217.778-274.401v-239.557l-87.111-87.109v-43.557h740.448v43.557l-87.113 87.109zM704.699 233.52h-392.002v283.114c0 108.889 87.11 196.001 196.001 196.001 108.888 0 196.001-87.111 196.001-196.001v-283.114z" />
<glyph unicode="&#xe919;" glyph-name="pass" d="M802.831 332.771v74.244h38.312c21.16 0 38.312 16.622 38.312 37.124s-17.152 37.124-38.312 37.124h-346.679l-9.029 24.752c-26.829 73.552-98.831 123.741-180.673 123.741-105.798 0-191.564-83.102-191.564-185.616s85.766-185.615 191.564-185.615c81.842 0 153.844 50.191 180.673 123.739l9.029 24.752h231.739v-74.244h76.628zM879.455 258.523h-229.877v74.247h-102.433c-43.721-89.337-137.245-148.495-242.383-148.495-148.117 0-268.19 116.345-268.19 259.862s120.073 259.862 268.19 259.862c105.138 0 198.662-59.159 242.383-148.491h293.998c63.481 0 114.94-49.861 114.94-111.371 0-48.49-31.985-89.743-76.628-105.033v-80.581zM304.762 369.891c42.319 0 76.627 33.243 76.627 74.247s-34.308 74.247-76.627 74.247c-42.319 0-76.626-33.243-76.626-74.247s34.307-74.247 76.626-74.247z" />
<glyph unicode="&#xe91a;" glyph-name="pass2" d="M853.333 338.286v85.333h42.667c23.562 0 42.667 19.102 42.667 42.667s-19.105 42.667-42.667 42.667h-386.072l-10.055 28.448c-29.879 84.534-110.064 142.218-201.206 142.218-117.821 0-213.333-95.512-213.333-213.333s95.512-213.333 213.333-213.333c91.142 0 171.327 57.684 201.206 142.218l10.055 28.448h258.072v-85.333h85.333zM938.667 252.952h-256v85.333h-114.074c-48.689-102.673-152.843-170.667-269.926-170.667-164.949 0-298.667 133.718-298.667 298.667s133.718 298.667 298.667 298.667c117.084 0 221.238-67.993 269.926-170.667h327.407c70.69 0 128-57.307 128-128 0-55.732-35.621-103.145-85.333-120.716v-92.617zM298.667 380.952c47.128 0 85.333 38.205 85.333 85.333s-38.205 85.333-85.333 85.333c-47.128 0-85.333-38.205-85.333-85.333s38.205-85.333 85.333-85.333z" />
<glyph unicode="&#xe91b;" glyph-name="pass-hidden" d="M914.203 872.58c-9.26 9.141-21.811 14.277-34.899 14.277s-25.644-5.135-34.899-14.277l-771.352-762.1c-4.714-4.496-8.475-9.879-11.062-15.828s-3.949-12.347-4.006-18.822c-0.057-6.476 1.192-12.893 3.674-18.885s6.147-11.44 10.781-16.018c4.635-4.579 10.146-8.197 16.212-10.65s12.566-3.686 19.12-3.628c6.554 0.054 13.031 1.399 19.053 3.955s11.469 6.271 16.022 10.928l771.301 762.1c9.255 9.144 14.453 21.545 14.453 34.475s-5.198 25.33-14.453 34.475h0.054zM153.412 286.462l126.362 124.831c-3.603 14.989-5.474 30.333-5.578 45.739 0 116.005 98.227 210.115 219.406 210.115 14.117 0 27.838-1.56 41.214-3.998l59.382 58.612c-33.251 5.442-66.892 8.214-100.596 8.29-323.803 0.049-493.602-235.52-493.602-273.018 0-20.626 52.174-101.913 153.412-170.521v-0.049zM833.941 627.454l-126.459-124.83c3.404-14.726 5.476-29.891 5.476-45.592 0-116.005-98.177-210.018-219.355-210.018-14.018 0-27.642 1.56-40.92 3.95l-59.43-58.661c31.689-5.071 64.958-8.29 100.35-8.29 323.803 0 493.602 235.667 493.602 273.018 0 20.675-52.126 101.912-153.264 170.423v0z" />
<glyph unicode="&#xe91c;" glyph-name="pass-vis" d="M153.412 296.984l126.362 124.83c-3.603 14.989-5.474 30.333-5.578 45.739 0 116.005 98.227 210.115 219.406 210.115 14.117 0 27.838-1.56 41.214-3.998l59.382 58.612c-33.251 5.442-66.892 8.214-100.596 8.29-323.803 0.049-493.602-235.52-493.602-273.018 0-20.626 52.174-101.961 153.412-170.569zM833.941 637.976l-126.459-124.83c3.404-14.726 5.476-29.891 5.476-45.592 0-116.005-98.177-210.018-219.355-210.018-14.018 0-27.642 1.56-40.92 3.95l-59.43-58.661c31.689-5.071 64.958-8.29 100.35-8.29 323.803 0 493.602 235.666 493.602 273.018 0 20.675-52.126 101.912-153.264 170.423zM833.79 296.984l-126.362 124.83c3.604 14.989 5.427 30.333 5.53 45.739 0 116.005-98.177 210.115-219.355 210.115-14.117 0-27.841-1.56-41.217-3.998l-59.38 58.612c33.25 5.442 66.894 8.214 100.598 8.29 323.803 0.049 493.602-235.52 493.602-273.018 0-20.626-52.175-101.961-153.415-170.569zM153.262 637.976l126.461-124.83c-3.406-14.726-5.527-29.891-5.527-45.592 0-116.005 98.227-210.018 219.406-210.018 14.019 0 27.638 1.56 40.916 3.95l59.431-58.661c-31.69-5.071-64.956-8.29-100.347-8.29-323.803 0-493.602 235.666-493.602 273.018 0 20.675 52.123 101.912 153.262 170.423z" />
<glyph unicode="&#xe91d;" glyph-name="pay" d="M593.778 789.333c111.889 0 202.667-90.053 202.667-201.142 0-111.047-90.778-201.145-202.667-201.145h-157.631v-44.698h225.186c24.912 0 45.036-19.974 45.036-44.698s-20.124-44.698-45.036-44.698h-225.186v-101.589c0-24.724-20.124-44.698-45.036-44.698-24.869 0-45.036 19.974-45.036 44.698v101.589h-45.039c-24.868 0-45.036 19.974-45.036 44.698s20.168 44.698 45.036 44.698h45.039v44.698h-45.039c-24.868 0-45.036 19.977-45.036 44.7s20.168 44.698 45.036 44.698h45.039v268.19c0 24.682 20.167 44.698 45.036 44.698h202.667zM706.369 588.191c0 61.739-50.384 111.745-112.592 111.745h-157.631v-223.492h157.631c62.208 0 112.592 50.005 112.592 111.747z" />
<glyph unicode="&#xe91e;" glyph-name="phone" d="M730.214 12.8c-21.294 0.010-42.45 3.267-62.648 9.646-141.051 44.636-269.248 119.501-374.557 218.732-105.065 99.436-184.323 220.504-231.56 353.711-12.499 35.060-13.591 72.852-3.136 108.504s31.978 67.528 61.794 91.52l72.938 59.024c13.112 10.616 28.353 18.631 44.813 23.566s33.806 6.691 51 5.162c17.194-1.529 33.887-6.312 49.083-14.063s28.585-18.312 39.368-31.053l92.555-109.384c14.789-17.532 23.501-38.942 24.95-61.316s-4.434-44.626-16.85-63.731l-42.227-64.717c-4.541-6.943-6.469-15.129-5.473-23.235s4.859-15.657 10.962-21.433l119.004-112.392c6.108-5.765 14.095-9.411 22.671-10.358 8.571-0.947 17.234 0.86 24.586 5.135l68.562 39.88c20.219 11.748 43.786 17.317 67.482 15.948s46.367-9.609 64.922-23.597l115.82-87.521c13.486-10.189 24.663-22.83 32.865-37.187 8.202-14.351 13.266-30.116 14.884-46.351 1.623-16.241-0.236-32.62-5.458-48.164s-13.706-29.942-24.94-42.327l-62.5-68.884c-18.36-20.372-41.18-36.746-66.888-47.985-25.708-11.244-53.693-17.085-82.022-17.132v0zM276.732 810.647c-12.366 0.008-24.325-4.173-33.705-11.783l-72.977-59.024c-18.188-14.632-31.32-34.073-37.703-55.817s-5.727-44.795 1.887-66.184c43.485-122.538 116.406-233.91 213.057-325.394 96.884-91.274 214.819-160.133 344.575-201.185 22.646-7.194 47.048-7.823 70.072-1.797 23.025 6.021 43.607 18.417 59.105 35.584l62.459 68.89c4.531 4.992 7.951 10.798 10.056 17.065s2.852 12.872 2.196 19.42c-0.655 6.548-2.698 12.902-6.011 18.688s-7.823 10.88-13.266 14.981l-115.82 87.521c-6.185 4.669-13.742 7.424-21.647 7.88-7.905 0.451-15.759-1.413-22.497-5.34l-68.526-39.885c-22.031-12.923-48.056-18.412-73.82-15.57-25.764 2.847-49.741 13.855-68.025 31.237l-119.005 112.391c-18.428 17.289-30.102 39.97-33.114 64.336s2.815 48.977 16.53 69.811l42.228 64.717c4.159 6.363 6.134 13.785 5.653 21.249s-3.394 14.605-8.34 20.445l-92.824 109.348c-4.848 5.759-11.013 10.408-18.034 13.598s-14.714 4.837-22.504 4.82v0z" />
<glyph unicode="&#xe91f;" glyph-name="qiwi" d="M777.337 216.839c51.602 59.465 83.072 136.832 83.072 221.55 0 186.769-151.987 338.754-337.393 338.754s-340.158-151.985-340.158-338.754c0-186.767 151.985-338.75 337.393-338.75 67.218 0 129.766 19.899 182.532 53.804l70.671-84.809c9.567-11.483 23.318-17.419 37.186-17.419 32.289 0 48.362 27.615 48.362 48.406 0 10.924-3.679 21.914-11.22 30.958l-70.444 86.261zM521.611 196.425c-133.416 0-241.968 108.551-241.968 241.964 0 133.416 108.551 240.606 241.968 240.606 133.413 0 241.964-108.551 241.964-240.606 0-54.758-18.977-104.77-49.785-145.36l-106.584 127.971c-9.585 11.487-23.351 17.437-37.219 17.437-32.165 0-48.333-27.557-48.333-48.424 0-10.924 3.679-21.914 11.22-30.958l108.175-129.799c-35.357-20.279-75.886-32.83-119.439-32.83z" />
<glyph unicode="&#xe920;" glyph-name="tarif" d="M815.221 777.143c-24.942 0-45.169-20.199-45.169-45.169v-104.58c-56.32 78.439-147.646 127.165-248.426 127.165-133.391 0-250.421-85.172-291.369-212.010-7.676-23.728 5.36-49.236 29.091-56.858 23.841-7.764 49.234 5.38 56.885 29.063 28.81 89.477 111.383 149.467 205.393 149.467 71.281 0 135.874-34.653 175.594-90.338h-62.672c-24.942 0-45.169-20.198-45.169-45.169s20.228-45.169 45.169-45.169h180.674c24.942 0 45.169 20.198 45.169 45.169v203.261c0 24.97-20.184 45.169-45.169 45.169zM783.887 390.949c-23.885 7.676-49.236-5.38-56.887-29.063-28.793-89.362-111.367-149.354-205.374-149.354-71.285 0-135.863 34.651-175.596 90.339h62.671c24.942 0 45.169 20.198 45.169 45.169 0 24.967-20.228 45.169-45.169 45.169h-180.674c-24.942 0-45.169-20.202-45.169-45.169v-203.26c0-24.971 20.227-45.169 45.169-45.169s45.169 20.198 45.169 45.169v104.58c56.32-78.468 147.647-127.166 247.158-127.166 133.321 0 250.405 85.171 291.339 212.012 9.037 23.713-4.092 50.392-27.805 56.744z" />
<glyph unicode="&#xe921;" glyph-name="uslugi" d="M241.778 647.111c-54.986 0-99.556 44.569-99.556 99.556s44.569 99.556 99.556 99.556c54.986 0 99.556-44.569 99.556-99.556s-44.57-99.556-99.556-99.556zM241.778 704c23.569 0 42.667 19.104 42.667 42.667s-19.097 42.667-42.667 42.667c-23.569 0-42.667-19.104-42.667-42.667s19.097-42.667 42.667-42.667zM241.778 362.667c-54.983 0-99.556 44.572-99.556 99.556s44.572 99.556 99.556 99.556c54.983 0 99.556-44.572 99.556-99.556s-44.572-99.556-99.556-99.556zM241.778 419.556c23.564 0 42.667 19.103 42.667 42.667s-19.102 42.667-42.667 42.667c-23.564 0-42.667-19.103-42.667-42.667s19.102-42.667 42.667-42.667zM241.778 78.222c-54.983 0-99.556 44.572-99.556 99.556s44.572 99.556 99.556 99.556c54.983 0 99.556-44.572 99.556-99.556s-44.572-99.556-99.556-99.556zM241.778 135.111c23.564 0 42.667 19.103 42.667 42.667s-19.102 42.667-42.667 42.667c-23.564 0-42.667-19.103-42.667-42.667s19.102-42.667 42.667-42.667zM526.222 647.111c-54.983 0-99.556 44.572-99.556 99.556s44.572 99.556 99.556 99.556c54.983 0 99.556-44.572 99.556-99.556s-44.572-99.556-99.556-99.556zM526.222 704c23.563 0 42.667 19.102 42.667 42.667s-19.103 42.667-42.667 42.667c-23.563 0-42.667-19.102-42.667-42.667s19.103-42.667 42.667-42.667zM526.222 362.667c-54.983 0-99.556 44.572-99.556 99.556s44.572 99.556 99.556 99.556c54.983 0 99.556-44.572 99.556-99.556s-44.572-99.556-99.556-99.556zM526.222 419.556c23.563 0 42.667 19.103 42.667 42.667s-19.103 42.667-42.667 42.667c-23.563 0-42.667-19.103-42.667-42.667s19.103-42.667 42.667-42.667zM526.222 78.222c-54.983 0-99.556 44.572-99.556 99.556s44.572 99.556 99.556 99.556c54.983 0 99.556-44.572 99.556-99.556s-44.572-99.556-99.556-99.556zM526.222 135.111c23.563 0 42.667 19.103 42.667 42.667s-19.103 42.667-42.667 42.667c-23.563 0-42.667-19.103-42.667-42.667s19.103-42.667 42.667-42.667zM810.667 647.111c-54.983 0-99.556 44.572-99.556 99.556s44.572 99.556 99.556 99.556c54.983 0 99.556-44.572 99.556-99.556s-44.572-99.556-99.556-99.556zM810.667 704c23.563 0 42.667 19.102 42.667 42.667s-19.103 42.667-42.667 42.667c-23.563 0-42.667-19.102-42.667-42.667s19.103-42.667 42.667-42.667zM810.667 362.667c-54.983 0-99.556 44.572-99.556 99.556s44.572 99.556 99.556 99.556c54.983 0 99.556-44.572 99.556-99.556s-44.572-99.556-99.556-99.556zM810.667 419.556c23.563 0 42.667 19.103 42.667 42.667s-19.103 42.667-42.667 42.667c-23.563 0-42.667-19.103-42.667-42.667s19.103-42.667 42.667-42.667zM810.667 78.222c-54.983 0-99.556 44.572-99.556 99.556s44.572 99.556 99.556 99.556c54.983 0 99.556-44.572 99.556-99.556s-44.572-99.556-99.556-99.556zM810.667 135.111c23.563 0 42.667 19.103 42.667 42.667s-19.103 42.667-42.667 42.667c-23.563 0-42.667-19.103-42.667-42.667s19.103-42.667 42.667-42.667z" />
<glyph unicode="&#xe922;" glyph-name="uslugi3" d="M728.13 449.649c0-18.52-15.005-33.514-33.507-33.514h-150.769v-150.769c0-18.523-15.002-33.496-33.503-33.496s-33.503 14.972-33.503 33.496v150.769h-150.772c-18.501 0-33.505 14.994-33.505 33.514 0 18.523 15.004 33.496 33.505 33.496h150.772v150.769c0 18.522 15.002 33.515 33.503 33.515s33.503-14.993 33.503-33.515v-150.769h150.769c18.534 0.007 33.507-14.961 33.507-33.496zM512 82.286c-201.979 0-365.714 163.738-365.714 365.714 0 201.979 163.736 365.714 365.714 365.714 201.977 0 365.714-163.736 365.714-365.714 0-201.977-163.738-365.714-365.714-365.714zM512 155.429c161.584 0 292.571 130.988 292.571 292.571s-130.988 292.571-292.571 292.571c-161.583 0-292.571-130.989-292.571-292.571s130.989-292.571 292.571-292.571z" />
<glyph unicode="&#xe923;" glyph-name="web" d="M512 789.333c-67.51 0-133.501-20.019-189.633-57.525s-99.883-90.816-125.717-153.186c-25.835-62.37-32.594-131.001-19.424-197.214s45.679-127.033 93.416-174.768c47.738-47.735 108.558-80.245 174.768-93.414 66.213-13.17 134.844-6.411 197.214 19.422 62.37 25.836 115.681 69.586 153.185 125.719 37.507 56.129 57.526 122.123 57.526 189.633-0.097 90.496-36.090 177.26-100.082 241.251s-150.756 99.984-241.252 100.082v0zM425.557 305.778h172.885c-19.672-49.195-49.075-93.909-86.443-131.47-37.367 37.561-66.768 82.276-86.443 131.47zM408.036 362.667c-13.084 56.135-13.084 114.532 0 170.667h207.929c13.084-56.135 13.084-114.532 0-170.667h-207.929zM227.556 448c-0.003 28.945 4.419 57.722 13.113 85.333h109.198c-11.415-56.317-11.415-114.35 0-170.667h-109.198c-8.693 27.611-13.116 56.388-13.113 85.333zM598.443 590.222h-172.885c19.675 49.195 49.075 93.91 86.443 131.47 37.367-37.56 66.77-82.276 86.443-131.47zM674.133 533.333h109.227c17.485-55.546 17.485-115.12 0-170.667h-109.227c11.418 56.317 11.418 114.35 0 170.667zM757.988 590.222h-98.788c-16.424 47.775-40.906 92.387-72.391 131.897 72.141-19.817 133.606-67.186 171.15-131.897h0.028zM437.191 722.119c-31.485-39.51-55.967-84.122-72.391-131.897h-98.759c37.544 64.711 99.009 112.080 171.15 131.897zM266.041 305.778h98.759c16.424-47.775 40.906-92.388 72.391-131.897-72.141 19.817-133.606 67.186-171.15 131.897zM586.809 173.881c31.485 39.509 55.967 84.122 72.391 131.897h98.759c-37.544-64.711-99.009-112.080-171.15-131.897z" />
<glyph unicode="&#xe924;" glyph-name="edit" d="M39.99 778.301c25.605 25.605 60.333 39.99 96.544 39.99h298.666c28.277 0 51.2-22.923 51.2-51.2s-22.923-51.2-51.2-51.2h-298.666c-9.053 0-17.735-3.596-24.136-9.997s-9.997-15.084-9.997-24.136v-597.334c0-9.052 3.596-17.736 9.997-24.136s15.084-9.999 24.136-9.999h597.331c9.052 0 17.736 3.599 24.136 9.999 6.405 6.4 9.999 15.084 9.999 24.136v298.665c0 28.278 22.922 51.2 51.2 51.2s51.2-22.922 51.2-51.2v-298.665c0-36.209-14.387-70.938-39.987-96.543-25.605-25.605-60.334-39.992-96.548-39.992h-597.331c-36.211 0-70.939 14.387-96.544 39.992s-39.99 60.334-39.99 96.543v597.334c0 36.211 14.385 70.939 39.99 96.544zM819.2 806.4c-10.424 0-20.424-4.142-27.796-11.513l-395.304-395.306-18.531-74.122 74.123 18.529 395.305 395.307c7.373 7.372 11.515 17.371 11.515 27.796s-4.142 20.424-11.515 27.796c-7.373 7.372-17.372 11.513-27.796 11.513zM718.996 867.294c26.578 26.576 62.623 41.506 100.204 41.506 37.586 0 73.631-14.93 100.204-41.506 26.578-26.576 41.508-62.62 41.508-100.204s-14.93-73.628-41.508-100.204l-405.33-405.331c-6.564-6.564-14.786-11.218-23.788-13.471l-170.666-42.665c-17.448-4.362-35.905 0.748-48.622 13.466s-17.829 31.176-13.467 48.625l42.666 170.665c2.251 9.001 6.906 17.224 13.468 23.786l405.332 405.334z" />
<glyph unicode="&#xe925;" glyph-name="calendar" d="M750.705 60.104h-477.412c-39.568 0-77.516 15.718-105.495 43.699-27.979 27.976-43.697 65.925-43.697 105.492v417.738c0 39.568 15.718 77.516 43.697 105.495s65.927 43.697 105.495 43.697h477.412c39.572 0 77.517-15.718 105.498-43.697 27.976-27.979 43.694-65.927 43.694-105.495v-417.738c0-39.567-15.718-77.517-43.694-105.492-27.981-27.981-65.925-43.699-105.498-43.699v0zM273.292 716.548c-23.741 0-46.51-9.431-63.297-26.218s-26.218-39.556-26.218-63.297v-417.738c0-23.741 9.431-46.51 26.218-63.299 16.787-16.783 39.556-26.214 63.297-26.214h477.412c23.741 0 46.51 9.431 63.299 26.214 16.788 16.788 26.22 39.557 26.22 63.299v417.738c0 23.741-9.431 46.51-26.22 63.297s-39.557 26.218-63.299 26.218h-477.412zM273.293 754.524c-33.813 0-66.241-13.432-90.15-37.341s-37.342-56.337-37.342-90.15v-417.737c0-33.812 13.432-66.243 37.342-90.153 23.909-23.905 56.337-37.34 90.15-37.34h477.417c33.812 0 66.237 13.435 90.148 37.34 23.91 23.91 37.34 56.34 37.34 90.153v417.737c0 33.813-13.43 66.241-37.34 90.15s-56.335 37.341-90.148 37.341h-477.417zM152.453 747.872c32.049 32.049 75.516 50.053 120.84 50.053h477.417c45.322 0 88.786-18.004 120.837-50.053 32.046-32.049 50.053-75.516 50.053-120.84v-417.737c0-45.322-18.007-88.791-50.053-120.842-32.051-32.046-75.515-50.053-120.837-50.053h-477.417c-45.324 0-88.791 18.007-120.84 50.053-32.049 32.051-50.053 75.52-50.053 120.842v417.737c0 45.324 18.004 88.791 50.053 120.84zM194.651 705.674c20.857 20.857 49.145 32.574 78.642 32.574h477.417c29.496 0 57.784-11.717 78.638-32.574 20.859-20.857 32.573-49.145 32.573-78.642v-417.737c0-29.496-11.715-57.784-32.573-78.643-20.854-20.854-49.142-32.573-78.638-32.573h-477.417c-29.496 0-57.784 11.72-78.642 32.573-20.857 20.859-32.574 49.147-32.574 78.643v417.737c0 29.496 11.718 57.785 32.574 78.642zM273.293 694.847c-17.986 0-35.234-7.145-47.952-19.863s-19.862-29.967-19.862-47.952v-417.737c0-17.987 7.144-35.236 19.862-47.954s29.967-19.86 47.952-19.86h477.417c17.981 0 35.231 7.142 47.949 19.86s19.866 29.967 19.866 47.954v417.737c0 17.986-7.148 35.235-19.866 47.952s-29.967 19.863-47.949 19.863h-477.417zM707.302 230.994h-86.799c-5.76 0-11.279 2.284-15.345 6.354-4.070 4.070-6.359 9.59-6.359 15.345v86.804c0 5.755 2.289 11.274 6.359 15.345 4.065 4.070 9.585 6.354 15.345 6.354h86.799c5.755 0 11.274-2.284 15.345-6.354s6.359-9.59 6.359-15.345v-86.804c0-5.755-2.289-11.274-6.359-15.345s-9.59-6.354-15.345-6.354zM642.202 274.396h43.402v43.397h-43.402v-43.397zM589.814 370.186c8.136 8.136 19.174 12.713 30.689 12.713h86.799c11.51 0 22.554-4.577 30.689-12.713 8.141-8.141 12.713-19.18 12.713-30.689v-86.804c0-11.51-4.572-22.548-12.713-30.689-8.136-8.141-19.18-12.713-30.689-12.713h-86.799c-11.515 0-22.554 4.572-30.689 12.713-8.141 8.141-12.713 19.18-12.713 30.689v86.804c0 11.51 4.572 22.548 12.713 30.689zM870.062 537.514h-716.124c-7.913 0-15.503 3.144-21.099 8.739s-8.739 13.185-8.739 21.099c0 7.913 3.144 15.503 8.739 21.099s13.186 8.739 21.099 8.739h716.124c7.91 0 15.503-3.144 21.1-8.739 5.591-5.596 8.735-13.186 8.735-21.099s-3.144-15.503-8.735-21.099c-5.596-5.596-13.189-8.739-21.1-8.739zM153.939 575.493c-2.158 0-4.228-0.858-5.754-2.384s-2.383-3.596-2.383-5.754c0-2.159 0.858-4.228 2.383-5.754s3.596-2.383 5.754-2.383h716.123c2.156 0 4.229 0.857 5.755 2.383s2.381 3.596 2.381 5.754c0 2.158-0.855 4.228-2.381 5.754s-3.599 2.384-5.755 2.384h-716.123zM117.495 603.799c9.666 9.665 22.775 15.095 36.444 15.095h716.123c13.67 0 26.778-5.43 36.444-15.095 9.661-9.666 15.094-22.775 15.094-36.444s-5.432-26.778-15.094-36.444c-9.667-9.666-22.774-15.096-36.444-15.096h-716.123c-13.669 0-26.778 5.43-36.444 15.096s-15.095 22.774-15.095 36.444c0 13.669 5.43 26.778 15.095 36.444zM362.801 656.869c-7.914 0-15.503 3.144-21.099 8.74s-8.74 13.185-8.74 21.098v119.354c0 7.913 3.144 15.503 8.74 21.099s13.185 8.739 21.099 8.739c7.913 0 15.503-3.144 21.098-8.739s8.74-13.186 8.74-21.099v-119.354c0-7.913-3.144-15.503-8.74-21.098s-13.185-8.74-21.098-8.74zM362.814 814.199c-2.158 0-4.228-0.858-5.754-2.383s-2.383-3.596-2.383-5.754v-119.354c0-2.158 0.858-4.228 2.383-5.754s3.596-2.383 5.754-2.383c2.159 0 4.228 0.858 5.754 2.383s2.383 3.596 2.383 5.754v119.354c0 2.158-0.857 4.228-2.383 5.754s-3.596 2.383-5.754 2.383zM326.37 842.505c9.666 9.666 22.775 15.095 36.444 15.095s26.778-5.43 36.444-15.095c9.666-9.666 15.096-22.775 15.096-36.444v-119.354c0-13.669-5.43-26.778-15.096-36.444s-22.774-15.095-36.444-15.095c-13.669 0-26.778 5.43-36.444 15.095s-15.095 22.775-15.095 36.444v119.354c0 13.669 5.43 26.778 15.095 36.444zM661.187 656.869c-7.91 0-15.503 3.144-21.1 8.74-5.591 5.596-8.735 13.185-8.735 21.098v119.354c0 7.913 3.144 15.503 8.735 21.099 5.596 5.596 13.189 8.739 21.1 8.739 7.916 0 15.503-3.144 21.1-8.739s8.74-13.186 8.74-21.099v-119.354c0-7.913-3.144-15.503-8.74-21.098s-13.184-8.74-21.1-8.74zM661.202 814.199c-2.161 0-4.229-0.858-5.755-2.383s-2.381-3.596-2.381-5.754v-119.354c0-2.158 0.855-4.228 2.381-5.754s3.594-2.383 5.755-2.383c2.156 0 4.229 0.858 5.755 2.383s2.381 3.596 2.381 5.754v119.354c0 2.158-0.855 4.228-2.381 5.754s-3.599 2.383-5.755 2.383zM624.758 842.505c9.667 9.666 22.774 15.095 36.444 15.095s26.778-5.43 36.444-15.095c9.667-9.666 15.094-22.775 15.094-36.444v-119.354c0-13.669-5.427-26.778-15.094-36.444s-22.774-15.095-36.444-15.095c-13.67 0-26.778 5.43-36.444 15.095s-15.094 22.775-15.094 36.444v119.354c0 13.669 5.427 26.778 15.094 36.444z" />
<glyph unicode="&#xe926;" glyph-name="email" d="M639.252 810.607c-83.814 18.674-170.667 18.674-254.477 0l-19.554-4.357c-58.44-13.022-110.025-43.872-148.827-86.74l231.792-166.524c38.18-27.432 89.476-27.432 127.656 0l231.788 166.524c-38.799 42.868-90.383 73.718-148.823 86.74l-19.553 4.357zM845.425 666.796l-232.018-166.686c-60.657-43.574-142.137-43.574-202.79 0l-232.016 166.686c-12.24-21.965-21.701-45.755-27.912-70.907-20.869-84.511-20.869-172.874 0-257.385 26.025-105.39 109.129-186.87 214.533-210.355l19.554-4.362c83.81-18.673 170.663-18.673 254.477 0l19.553 4.362c105.4 23.485 188.503 104.965 214.533 210.355 20.869 84.511 20.869 172.874 0 257.384-6.211 25.152-15.677 48.942-27.914 70.907zM370.794 874.052c93.017 20.726 189.421 20.726 282.436 0l19.553-4.357c129.357-28.824 231.342-128.821 263.276-258.146 23.404-94.795 23.404-193.911 0-288.702-31.933-129.326-133.919-229.325-263.276-258.145l-19.553-4.362c-93.015-20.726-189.418-20.726-282.436 0l-19.554 4.362c-129.358 28.82-231.336 128.819-263.271 258.145-23.408 94.792-23.408 193.908 0 288.703 31.935 129.325 133.913 229.322 263.271 258.145l19.554 4.357zM649.042 855.315c-90.266 20.113-183.817 20.113-274.084 0l-19.555-4.357c-122.197-27.228-218.608-121.713-248.807-244.008-22.662-91.772-22.662-187.729 0-279.5 30.199-122.291 126.61-216.781 248.807-244.004l19.555-4.362c0 0-0.001 0 0 0 90.266-20.111 183.818-20.111 274.084 0 0 0 0 0 0 0l19.553 4.357c122.199 27.228 218.614 121.718 248.812 244.009 22.656 91.771 22.656 187.728 0 279.5-30.198 122.296-126.612 216.78-248.812 244.008 0 0 0.005 0 0 0l-19.553 4.357zM657.393 892.796c0 0 0 0 0 0l19.558-4.357c136.515-30.419 244.065-135.929 277.734-272.284 24.151-97.818 24.151-200.093 0-297.911-33.669-136.351-141.22-241.864-277.734-272.282 0 0 0 0 0 0l-19.558-4.357c-95.764-21.34-195.019-21.34-290.786 0l-19.554 4.357c-136.52 30.418-244.065 135.931-277.736 272.282-24.155 97.818-24.155 200.093 0 297.912 33.671 136.353 141.216 241.864 277.736 272.283l19.554 4.357c0 0 0 0 0 0 95.767 21.339 195.022 21.339 290.786 0zM643.415 829.35c0 0 0 0 0 0l19.553-4.357c62.403-13.906 117.478-46.85 158.884-92.596l14.423-15.936-249.247-179.065c-44.872-32.242-105.183-32.242-150.058-0.001 0 0.001 0.001 0 0 0l-249.249 179.066 14.425 15.937c41.406 45.745 96.479 78.69 158.886 92.596l19.554 4.357c86.56 19.288 176.269 19.287 262.828 0zM635.059 791.869c-81.055 18.061-165.061 18.061-246.121 0l-19.554-4.357c-47.191-10.515-89.598-33.502-123.628-65.462l213.619-153.468c31.485-22.622 73.765-22.623 105.248-0.001l213.622 153.469c-34.033 31.959-76.436 54.946-123.628 65.462 0 0 0 0 0 0l-19.558 4.357zM851.702 694.958l10.481-18.813c13.061-23.44 23.163-48.824 29.783-75.652 21.617-87.533 21.617-179.055 0-266.587-27.761-112.42-116.434-199.414-228.997-224.497 0 0 0 0 0 0l-19.553-4.357c-86.559-19.292-176.268-19.292-262.829 0l-19.554 4.357c0 0 0.001 0 0 0-112.564 25.083-201.236 112.077-228.997 224.497-21.616 87.532-21.616 179.055 0 266.589 6.624 26.825 16.718 52.209 29.78 75.65l10.484 18.813 249.506-179.252c53.959-38.765 126.423-38.766 180.388 0 0 0 0 0 0 0l249.508 179.252zM185.595 638.124c-6.785-14.901-12.26-30.56-16.279-46.835-20.122-81.487-20.122-166.687 0-248.177 24.29-98.36 101.825-174.331 200.068-196.224l19.555-4.357c0.001 0 0 0 0 0 81.060-18.063 165.066-18.063 246.12 0l19.558 4.357c98.237 21.893 175.775 97.864 200.069 196.224 20.122 81.49 20.122 166.69 0 248.177-4.019 16.273-9.498 31.934-16.282 46.836l-213.806-153.604c-67.348-48.383-157.85-48.383-225.198-0.001l-213.807 153.604z" />
<glyph unicode="&#xe927;" glyph-name="nav-min" d="M496.214 9.144c-4.449-0.026-8.859 0.824-12.978 2.509-4.119 1.679-7.864 4.157-11.023 7.291l-238.993 236.626c-34.505 34.278-61.889 75.044-80.575 119.946s-28.307 93.061-28.307 141.698c0 48.636 9.62 96.793 28.307 141.697s46.071 85.667 80.575 119.945c70.043 69.197 164.534 108.001 262.993 108.001s192.949-38.804 262.995-108.001c34.504-34.277 61.885-75.041 80.573-119.945s28.308-93.060 28.308-141.697c0-48.636-9.62-96.795-28.308-141.698s-46.070-85.668-80.573-119.946l-238.996-236.626c-3.159-3.133-6.902-5.612-11.021-7.291-4.119-1.684-8.529-2.534-12.978-2.509zM496.214 820.434c-80.681 0.198-158.136-31.66-215.33-88.566v0c-28.168-27.992-50.522-61.279-65.777-97.944s-23.108-75.985-23.108-115.696c0-39.712 7.853-79.029 23.108-115.699 15.255-36.664 37.609-69.949 65.777-97.94l215.33-213.98 215.328 213.98c28.17 27.991 50.524 61.276 65.777 97.94 15.258 36.669 23.112 75.987 23.112 115.699s-7.854 79.031-23.112 115.696c-15.252 36.665-37.606 69.951-65.777 97.944-57.19 56.906-134.646 88.764-215.328 88.566v0zM496.219 864.914c-92.675 0-181.617-36.52-247.55-101.646-32.442-32.233-58.189-70.565-75.761-112.788-17.575-42.232-26.623-87.523-26.623-133.265s9.048-91.036 26.623-133.266c17.572-42.225 43.322-80.558 75.767-112.794 0.005-0.005-0.005 0.005 0 0l238.981-236.616c1.108-1.101 2.437-1.981 3.881-2.575 1.445-0.589 2.993-0.886 4.554-0.881l0.253 0.005c1.561-0.010 3.109 0.287 4.554 0.876 1.445 0.594 2.759 1.464 3.868 2.56l238.98 236.616c0.005 0.005-0.005-0.005 0 0 32.445 32.236 58.209 70.584 75.781 112.809 17.577 42.23 26.624 87.523 26.624 133.266s-9.047 91.034-26.624 133.265c-17.572 42.223-43.315 80.554-75.761 112.788-65.93 65.126-154.875 101.646-247.548 101.646zM217.804 794.466c74.15 73.254 174.182 114.334 278.415 114.334s204.263-41.080 278.416-114.334l0.041-0.042c36.557-36.317 65.572-79.506 85.371-127.081s29.993-98.597 29.993-150.127c0-51.531-10.194-102.551-29.993-150.126s-48.814-90.767-85.371-127.084l-239.007-236.636c-5.202-5.161-11.392-9.257-18.176-12.032-6.753-2.755-13.981-4.163-21.275-4.137-7.294-0.026-14.522 1.382-21.275 4.137-6.786 2.775-12.958 6.856-18.164 12.017zM456.78 3.354l-238.993 236.626c-36.558 36.316-65.597 79.534-85.395 127.109s-29.991 98.595-29.991 150.126c0 51.53 10.193 102.552 29.991 150.127s48.812 90.764 85.369 127.081l0.043 0.042zM496.219-12.8c-0.042 0-0.085 0-0.127 0l0.127 21.944 0.126-21.944c-0.042 0-0.084 0-0.126 0zM265.412 747.424c61.306 60.998 144.326 95.152 230.807 94.954 86.478 0.198 169.499-33.956 230.806-94.954 30.218-30.030 54.195-65.738 70.559-105.070 16.369-39.336 24.791-81.52 24.791-124.125s-8.422-84.79-24.791-124.127c-16.364-39.332-40.346-75.044-70.569-105.078l-230.795-229.35-230.797 229.35c-30.22 30.034-54.204 65.746-70.569 105.078-16.366 39.337-24.791 81.522-24.791 124.127s8.425 84.789 24.791 124.125c16.364 39.332 40.344 75.040 70.56 105.070zM296.356 716.304c-26.116-25.953-46.841-56.815-60.984-90.808s-21.424-70.449-21.424-107.268c0-36.818 7.281-73.275 21.424-107.267 14.142-33.997 34.868-64.855 60.984-90.808 0 0 0 0 0 0l199.863-198.61 199.86 198.61c0.005 0 0 0 0 0 26.117 25.953 46.843 56.812 60.989 90.808 14.141 33.992 21.422 70.448 21.422 107.267s-7.281 73.274-21.422 107.268c-14.147 33.994-34.872 64.855-60.989 90.808-53.064 52.802-124.943 82.371-199.806 82.187l-0.054 21.943-0.054-21.943c-74.862 0.184-146.74-29.386-199.809-82.187zM496.219 347.182c-33.429 0-66.107 9.912-93.902 28.483-27.795 18.575-49.459 44.969-62.252 75.854-12.792 30.884-16.14 64.868-9.618 97.655s22.619 62.903 46.257 86.54c23.638 23.638 53.754 39.735 86.541 46.257s66.772 3.174 97.656-9.618c30.884-12.792 57.283-34.456 75.853-62.251s28.483-60.473 28.483-93.902c0-44.827-17.807-87.819-49.505-119.512-31.693-31.698-74.685-49.505-119.512-49.505zM496.219 617.611c-20.057 0-39.664-5.948-56.341-17.091s-29.676-26.981-37.351-45.512c-7.676-18.53-9.684-38.921-5.771-58.593s13.571-37.742 27.754-51.922c14.182-14.182 32.252-23.844 51.924-27.756s40.060-1.905 58.595 5.77c18.529 7.675 34.365 20.675 45.512 37.351 11.141 16.677 17.091 36.284 17.091 56.341 0 26.896-10.685 52.69-29.706 71.709-19.016 19.018-44.81 29.703-71.707 29.703v0zM552.494 652.081c-26.875 11.132-56.445 14.045-84.975 8.37s-54.736-19.683-75.305-40.252c-20.569-20.569-34.577-46.775-40.252-75.305s-2.762-58.102 8.37-84.977c11.132-26.872 29.983-49.846 54.17-66.004 24.186-16.164 52.622-24.786 81.711-24.786 39.007 0 76.414 15.493 104.001 43.075 27.581 27.581 43.075 64.993 43.075 103.999 0 29.089-8.627 57.525-24.786 81.711s-39.132 43.038-66.007 54.17zM458.957 703.493c37.043 7.368 75.438 3.587 110.33-10.867 34.898-14.454 64.722-38.929 85.704-70.333s32.184-68.324 32.184-106.093c0-50.646-20.122-99.217-55.931-135.032-35.814-35.809-84.388-55.931-135.033-55.931-37.769 0-74.689 11.203-106.093 32.184s-55.88 50.806-70.333 85.699c-14.453 34.896-18.235 73.292-10.867 110.334s25.556 71.069 52.262 97.776c26.706 26.707 60.732 44.894 97.776 52.262zM427.68 618.766c20.285 13.554 44.134 20.789 68.532 20.789 32.715 0 64.090-12.996 87.222-36.129 23.137-23.134 36.132-54.509 36.132-87.225 0-24.397-7.235-48.246-20.787-68.533-13.558-20.285-32.819-36.096-55.363-45.43-22.538-9.339-47.341-11.781-71.269-7.020-23.928 4.756-45.908 16.507-63.16 33.756-17.251 17.254-29 39.233-33.759 63.161s-2.317 48.731 7.020 71.271c9.336 22.54 25.147 41.805 45.433 55.359zM496.212 595.669c-15.717 0-31.082-4.661-44.15-13.393s-23.255-21.143-29.269-35.664c-6.015-14.521-7.589-30.499-4.522-45.915s10.635-29.576 21.749-40.689c11.113-11.114 25.273-18.684 40.689-21.751 15.415-3.062 31.394-1.49 45.914 4.526 14.52 6.013 26.931 16.199 35.666 29.267 8.73 13.068 13.394 28.433 13.394 44.15 0 21.076-8.376 41.29-23.276 56.193-14.904 14.903-35.118 23.276-56.195 23.276z" />
<glyph unicode="&#xe928;" glyph-name="save" d="M743.747 588.126v91.621h45.814c75.899 0 137.431-61.531 137.431-137.432v-366.485c0-75.899-61.532-137.431-137.431-137.431h-549.729c-75.901 0-137.432 61.532-137.432 137.431v366.485c0 75.901 61.53 137.432 137.432 137.432h45.811v-91.621h-45.811c-25.3 0-45.811-20.51-45.811-45.81v-366.485c0-25.298 20.51-45.809 45.811-45.809h549.729c25.298 0 45.809 20.511 45.809 45.809v366.485c0 25.3-20.511 45.81-45.809 45.81h-45.814zM562.56 494.34l53.668 53.036c18.693 18.471 48.998 18.471 67.692 0 18.688-18.471 18.688-48.418 0-66.889l-169.226-167.224-169.222 167.224c-18.692 18.471-18.692 48.418 0 66.889s48.997 18.471 67.689 0l53.67-53.036v367.162c0 26.122 21.429 47.298 47.862 47.298 26.435 0 47.867-21.176 47.867-47.298v-367.162z" />
<glyph unicode="&#xe929;" glyph-name="person" d="M512 782.306c-59.663 0-108.929-48.915-108.929-110.372s49.266-110.369 108.929-110.369 108.928 48.911 108.928 110.369c0 61.456-49.265 110.372-108.928 110.372zM276.58 671.934c0 130.317 104.903 236.866 235.42 236.866 130.519 0 235.423-106.549 235.423-236.866 0-130.321-104.904-236.862-235.423-236.862-130.516 0-235.42 106.541-235.42 236.862zM367.864 212.634c-50.173-8.079-87.77-51.927-87.77-104.197v-18.355c0-14.075 11.171-24.576 23.839-24.576h416.133c12.667 0 23.839 10.501 23.839 24.576v18.355c0 52.27-37.591 96.118-87.767 104.197-95.488 15.365-192.788 15.365-288.274 0zM347.768 337.521c108.802 17.516 219.661 17.516 328.461 0 112.251-18.063 194.171-115.482 194.171-229.084v-18.355c0-82.934-66.806-151.071-150.333-151.071h-416.133c-83.525 0-150.333 68.137-150.333 151.071v18.355c0 113.603 81.919 211.021 194.168 229.084z" />
<glyph unicode="&#xe92a;" glyph-name="help-tech" d="M839.256 562.944c4.502-11.059 0.68-23.53-8.594-31.631l-59.067-50.655c1.503-10.672 2.319-21.603 2.319-32.658s-0.816-21.987-2.319-32.658l59.067-50.655c9.275-8.101 13.096-20.571 8.594-31.631-6.001-15.298-13.232-30.084-21.416-44.098l-6.411-10.416c-9.004-14.142-19.098-27.513-30.146-40.243-8.185-9.128-21.416-12.343-33.423-8.741l-75.977 22.883c-18.282-13.243-39.698-24.298-60.021-32.786l-17.053-73.413c-2.728-11.571-12.277-19.8-24.825-22.886-18.823-2.955-38.195-4.498-59.202-4.498-18.553 0-37.921 1.543-56.748 4.498-12.548 3.087-22.096 11.315-24.825 22.886l-17.050 73.413c-21.555 8.488-41.743 19.544-60.022 32.786l-75.925-22.883c-12.059-3.602-25.359-0.388-33.434 8.741-11.063 12.731-21.157 26.101-30.16 40.243l-6.384 10.416c-8.28 14.014-15.483 28.8-21.525 44.098-4.42 11.059-0.696 23.53 8.662 31.631l59.011 50.655c-1.501 10.672-2.278 21.603-2.278 32.658s0.778 21.987 2.278 32.658l-59.011 50.655c-9.358 8.101-13.082 20.443-8.662 31.631 6.043 15.298 13.259 30.084 21.525 44.099l6.37 10.414c9.017 14.143 19.111 27.515 30.174 40.179 8.075 9.193 21.375 12.381 33.434 8.756l75.925-22.834c18.279 13.294 38.467 24.351 60.022 32.747l17.050 73.414c2.728 11.674 12.277 20.944 24.825 22.911 18.827 2.969 38.195 4.513 57.977 4.513 19.778 0 39.15-1.544 57.973-4.513 12.548-1.967 22.096-11.237 24.825-22.911l17.053-73.414c20.323-8.396 41.739-19.453 60.021-32.747l75.977 22.834c12.006 3.626 25.238 0.437 33.423-8.756 11.048-12.664 21.142-26.036 30.146-40.179l6.411-10.414c8.185-14.015 15.415-28.801 21.416-44.099zM512.011 345.143c60.292 0 109.125 46.029 109.125 104.013 0 55.673-48.834 102.857-109.125 102.857-60.295 0-109.129-47.184-109.129-102.857 0-57.984 48.834-104.013 109.129-104.013z" />
<glyph unicode="&#xe92b;" glyph-name="mkd" d="M854.016 329.551c34.552 0 62.559 28.006 62.559 62.555 0 34.552-28.006 62.559-62.559 62.559-34.548 0-62.555-28.006-62.555-62.559 0-34.548 28.006-62.555 62.555-62.555zM854.016 415.279c-12.796 0-23.17-10.374-23.17-23.174 0-12.796 10.374-23.17 23.17-23.17 12.8 0 23.174 10.374 23.174 23.17 0 12.8-10.374 23.174-23.174 23.174zM752.077 392.105c0 56.3 45.639 101.943 101.939 101.943 56.304 0 101.943-45.643 101.943-101.943s-45.639-101.939-101.943-101.939c-56.3 0-101.939 45.639-101.939 101.939zM96.154 877.899c21.751 0 39.385-17.633 39.385-39.385v-769.702c0-21.752-17.633-39.385-39.385-39.385s-39.385 17.632-39.385 39.385v769.702c0 21.751 17.633 39.385 39.385 39.385zM56.769 68.817c0 21.752 17.633 39.385 39.385 39.385h457.29c21.752 0 39.385-17.632 39.385-39.385s-17.632-39.385-39.385-39.385h-457.29c-21.752 0-39.385 17.632-39.385 39.385zM56.692 838.437c0 21.752 17.633 39.385 39.385 39.385h757.931c21.752 0 39.385-17.633 39.385-39.385s-17.632-39.385-39.385-39.385h-757.931c-21.751 0-39.385 17.633-39.385 39.385zM190.769 697.711c0 10.876 8.817 19.692 19.692 19.692h105.865c10.876 0 19.692-8.817 19.692-19.692v-141.845c0-10.874-8.817-19.692-19.692-19.692h-105.865c-10.876 0-19.692 8.818-19.692 19.692v141.845zM230.154 678.019v-102.459h66.48v102.459h-66.48zM427.922 697.711c0 10.876 8.818 19.692 19.692 19.692h105.866c10.874 0 19.692-8.817 19.692-19.692v-141.845c0-10.874-8.818-19.692-19.692-19.692h-105.866c-10.874 0-19.692 8.818-19.692 19.692v141.845zM467.306 678.019v-102.459h66.481v102.459h-66.481zM190.769 360.645c0 10.874 8.817 19.692 19.692 19.692h105.865c10.876 0 19.692-8.818 19.692-19.692v-141.844c0-10.878-8.817-19.692-19.692-19.692h-105.865c-10.876 0-19.692 8.814-19.692 19.692v141.844zM230.154 340.953v-102.459h66.48v102.459h-66.48zM427.922 360.645c0 10.874 8.818 19.692 19.692 19.692h105.866c10.874 0 19.692-8.818 19.692-19.692v-141.844c0-10.878-8.818-19.692-19.692-19.692h-105.866c-10.874 0-19.692 8.814-19.692 19.692v141.844zM467.306 340.953v-102.459h66.481v102.459h-66.481z" />
<glyph unicode="&#xe92c;" glyph-name="office" d="M854.063 283.231c34.572 0 62.598 28.030 62.598 62.602s-28.026 62.602-62.598 62.602c-34.576 0-62.602-28.030-62.602-62.602s28.026-62.602 62.602-62.602zM854.063 369.050c-12.824 0-23.217-10.394-23.217-23.217 0-12.82 10.394-23.217 23.217-23.217 12.82 0 23.213 10.398 23.213 23.217 0 12.824-10.394 23.217-23.213 23.217zM752.077 345.832c0 56.324 45.659 101.986 101.986 101.986 56.324 0 101.983-45.663 101.983-101.986s-45.659-101.986-101.983-101.986c-56.328 0-101.986 45.663-101.986 101.986zM854.075 924.159c21.752 0 39.385-17.633 39.385-39.384v-535.803c0-21.752-17.632-39.385-39.385-39.385-21.748 0-39.385 17.632-39.385 39.385v535.803c0 21.751 17.636 39.384 39.385 39.384zM96.115 698.221c21.751 0 39.385-17.633 39.385-39.385v-636.364c0-21.752-17.633-39.385-39.385-39.385s-39.385 17.632-39.385 39.385v636.364c0 21.752 17.633 39.385 39.385 39.385zM56.731 22.473c0 21.748 17.633 39.385 39.385 39.385h457.357c21.752 0 39.385-17.636 39.385-39.385 0-21.752-17.632-39.385-39.385-39.385h-457.357c-21.752 0-39.385 17.632-39.385 39.385zM891.774 896.025c6.215-20.845-5.644-42.781-26.49-48.995l-757.907-225.935c-20.845-6.214-42.781 5.647-48.994 26.492s5.647 42.781 26.492 48.994l757.905 225.935c20.846 6.214 42.784-5.647 48.994-26.492zM264.577 596.933c0 10.876 8.817 19.692 19.692 19.692h231.768c10.878 0 19.692-8.816 19.692-19.692v-141.831c0-10.874-8.814-19.692-19.692-19.692h-231.768c-10.876 0-19.692 8.818-19.692 19.692v141.831zM303.961 577.24v-102.447h192.383v102.447h-192.383zM264.577 314.317c0 10.878 8.817 19.692 19.692 19.692h231.768c10.878 0 19.692-8.814 19.692-19.692v-141.828c0-10.878-8.814-19.692-19.692-19.692h-231.768c-10.876 0-19.692 8.814-19.692 19.692v141.828zM303.961 294.624v-102.443h192.383v102.443h-192.383z" />
<glyph unicode="&#xe92d;" glyph-name="home" d="M487.357 832.826c13.111-14.434 12.041-36.765-2.391-49.879l-423.808-385.045c-14.434-13.111-36.766-12.041-49.879 2.391-13.114 14.435-12.043 36.765 2.39 49.879l423.808 385.045c14.431 13.114 36.765 12.043 49.879-2.391zM434.43 832.1c12.715 14.788 35.007 16.47 49.795 3.757l447.894-385.043c14.788-12.715 16.469-35.007 3.757-49.795-12.715-14.788-35.007-16.472-49.795-3.757l-447.894 385.043c-14.788 12.713-16.469 35.007-3.757 49.795zM909.125 361.705c34.424 0 62.33 27.906 62.33 62.33s-27.906 62.33-62.33 62.33c-34.424 0-62.333-27.906-62.333-62.33s27.909-62.33 62.333-62.33zM909.125 468.71c-24.675 0-44.678-20-44.678-44.675 0-24.671 20.003-44.675 44.678-44.675 24.671 0 44.675 20.003 44.675 44.675 0 24.675-20.003 44.675-44.675 44.675zM829.136 424.035c0 44.177 35.812 79.985 79.989 79.985 44.173 0 79.985-35.808 79.985-79.985 0-44.173-35.812-79.985-79.985-79.985-44.177 0-79.989 35.812-79.989 79.985zM293.759 459.349c19.501 0 35.31-15.808 35.31-35.31v-321.988c0-19.502-15.809-35.31-35.31-35.31s-35.31 15.808-35.31 35.31v321.988c0 19.502 15.809 35.31 35.31 35.31zM2.103 424.038c0 19.502 15.809 35.31 35.31 35.31h256.351c19.502 0 35.31-15.808 35.31-35.31s-15.809-35.31-35.31-35.31h-256.351c-19.501 0-35.31 15.808-35.31 35.31zM258.448 102.047c0 19.502 15.809 35.31 35.31 35.31h285.709c19.502 0 35.31-15.808 35.31-35.31s-15.808-35.31-35.31-35.31h-285.709c-19.502 0-35.31 15.808-35.31 35.31z" />
</font>
</defs>
</svg>
